<svg id="Layer_1" data-name="Layer 1" xmlns="http://www.w3.org/2000/svg" viewBox="0 0 725.45 149.8"><defs><style>.cls-1{fill:#4e008e}.cls-2{fill:#6bfff0}.cls-3{fill:#d1495b}.cls-4{fill:#ff9d00}.cls-5{fill:#ffd000}</style></defs><path class="cls-1" d="M860.42 508.83v12.84h-107q-14.34 0-19.69-12.84z" transform="translate(-134.97 -371.87)"/><path class="cls-2" d="M860.42 491.71v12.84h-128a6.15 6.15 0 0 0-.11-1.18 5 5 0 0 1-.1-1 7.2 7.2 0 0 1-.22-2.14v-8.56z" transform="translate(-134.97 -371.87)"/><path class="cls-2" d="M693.35 102.72h32.1v12.84h-32.1z"/><path class="cls-3" d="M693.35 85.6h32.1v12.84h-32.1zm-42.8-17.12h74.9v12.84h-74.9z"/><path class="cls-4" d="M650.55 51.36h74.9V64.2h-74.9z"/><path class="cls-5" d="M860.42 389v12.84H732v-8.56a7.16 7.16 0 0 1 .22-2.14 5.07 5.07 0 0 1 .1-1 6 6 0 0 0 .11-1.17zm0-17.13v12.84H733.73q5.35-12.84 19.69-12.84z" transform="translate(-134.97 -371.87)"/><path class="cls-2" d="M597.05 102.72h32.1v12.84h-32.1z"/><path class="cls-3" d="M597.05 85.6h32.1v12.84h-32.1zm0-17.12h32.1v12.84h-32.1z"/><path class="cls-4" d="M597.05 51.36h32.1V64.2h-32.1zm0-17.12h32.1v12.84h-32.1z"/><path class="cls-2" d="M715.33 491.71v8.56a7.65 7.65 0 0 1-.21 2.14 5 5 0 0 1-.11 1 6.15 6.15 0 0 0-.11 1.18h-128v-12.88z" transform="translate(-134.97 -371.87)"/><path class="cls-2" d="M548.26 102.72h32.1v12.84h-32.1z"/><path class="cls-3" d="M548.26 85.6h32.1v12.84h-32.1zm0-17.12h32.1v12.84h-32.1z"/><path class="cls-4" d="M548.26 51.36h32.1V64.2h-32.1zm0-17.12h32.1v12.84h-32.1z"/><path class="cls-5" d="M715.33 393.27v8.56h-128.4V389h128a6 6 0 0 0 .11 1.17 5.14 5.14 0 0 1 .11 1 7.6 7.6 0 0 1 .18 2.1zm-1.71-8.56H586.93v-12.84h107q14.13 0 19.69 12.84z" transform="translate(-134.97 -371.87)"/><path class="cls-1" d="M586.93 508.83h126.69q-5.57 12.84-19.69 12.84h-107z" transform="translate(-134.97 -371.87)"/><path class="cls-2" d="M451.96 102.72h32.1v12.84h-32.1z"/><path class="cls-3" d="M451.96 85.6h32.1v12.84h-32.1zm0-17.12h32.1v12.84h-32.1z"/><path class="cls-4" d="M451.96 51.36h32.1V64.2h-32.1zm0-17.12h32.1v12.84h-32.1z"/><path class="cls-5" d="M312.01 17.12h128.4v12.84h-128.4zm0-17.12h128.4v12.84h-128.4z"/><path class="cls-1" d="M362.3 136.96h32.1v12.84h-32.1z"/><path class="cls-2" d="M362.3 119.84h32.1v12.84h-32.1zm0-17.12h32.1v12.84h-32.1z"/><path class="cls-3" d="M362.3 85.6h32.1v12.84h-32.1zm0-17.12h32.1v12.84h-32.1z"/><path class="cls-4" d="M362.3 51.36h32.1V64.2h-32.1zm0-17.12h32.1v12.84h-32.1z"/><path class="cls-2" d="M436.49 491.71v8.56a7.65 7.65 0 0 1-.21 2.14 5 5 0 0 1-.11 1 6.18 6.18 0 0 0-.1 1.18h-128v-12.88z" transform="translate(-134.97 -371.87)"/><path class="cls-2" d="M269.43 102.72h32.09v12.84h-32.09z"/><path class="cls-3" d="M436.49 461.75v8.56H404.4v-12.84h31.67a6.08 6.08 0 0 0 .1 1.17 5.14 5.14 0 0 1 .11 1 7.6 7.6 0 0 1 .21 2.11z" transform="translate(-134.97 -371.87)"/><path class="cls-4" d="M436.49 406.11v8.56a7.65 7.65 0 0 1-.21 2.14 5 5 0 0 1-.11 1 6.18 6.18 0 0 0-.1 1.18H404.4v-12.88z" transform="translate(-134.97 -371.87)"/><path class="cls-5" d="M436.49 393.27v8.56h-128.4V389h128a6.08 6.08 0 0 0 .1 1.17 5.14 5.14 0 0 1 .11 1 7.6 7.6 0 0 1 .19 2.1zm-1.71-8.56H308.09v-12.84h107q14.13 0 19.69 12.84z" transform="translate(-134.97 -371.87)"/><path class="cls-4" d="M308.09 423.23h126.69q-5.56 12.84-19.69 12.84h-107z" transform="translate(-134.97 -371.87)"/><path class="cls-3" d="M434.78 453.19H308.09v-12.84h107q14.13 0 19.69 12.84z" transform="translate(-134.97 -371.87)"/><path class="cls-1" d="M308.09 508.83h126.69q-5.56 12.84-19.69 12.84h-107z" transform="translate(-134.97 -371.87)"/><path class="cls-2" d="M173.12 102.72h32.1v12.84h-32.1z"/><path class="cls-3" d="M173.12 85.6h32.1v12.84h-32.1z"/><path class="cls-4" d="M173.12 34.24h32.1v12.84h-32.1z"/><path class="cls-1" d="M155.37 136.96l5.13 12.84h-36.38l-5.13-12.84h36.38z"/><path class="cls-2" d="M148.52 119.84l5.13 12.84h-36.38l-5.13-12.84h36.38zm-6.85-17.12l5.14 12.84H13.7l5.13-12.84h122.84z"/><path class="cls-3" d="M134.82 85.6l5.14 12.84H20.55l5.13-12.84h109.14zm-6.85-17.12l5.14 12.84H96.73l-5.14-12.84h36.38z"/><path class="cls-4" d="M121.13 51.36l5.13 12.84H89.88l-5.13-12.84h36.38zm-6.85-17.12l5.13 12.84H83.03l-2.78-7.07-2.78 7.07H41.09l5.14-12.84h68.05z"/><path class="cls-5" d="M107.43 17.12l5.14 12.84H47.94l5.13-12.84h54.36zM100.58 0l5.14 12.84H54.79L59.92 0h40.66z"/><path class="cls-4" d="M75.76 51.36L70.62 64.2H34.24l5.14-12.84h36.38z"/><path class="cls-3" d="M68.91 68.48l-5.14 12.84H27.39l5.14-12.84h36.38z"/><path class="cls-2" d="M48.37 119.84l-5.14 12.84H6.85l5.14-12.84h36.38z"/><path class="cls-1" d="M41.52 136.96l-5.14 12.84H0l5.14-12.84h36.38z"/></svg>