<svg id="Layer_1" data-name="Layer 1" xmlns="http://www.w3.org/2000/svg" viewBox="0 0 725.45 149.8"><defs><style>.cls-1{fill:#4e008e;}.cls-2{fill:#6bfff0;}.cls-3{fill:#d1495b;}.cls-4{fill:#ff9d00;}.cls-5{fill:#ffd000;}</style></defs><title>ABTDG-logo-trans</title><path class="cls-1" d="M860.42,508.83v12.84h-107q-14.34,0-19.69-12.84Z" transform="translate(-134.97 -371.87)"/><path class="cls-2" d="M860.42,491.71v12.84h-128a6.15,6.15,0,0,0-.11-1.18,5,5,0,0,1-.1-1,7.2,7.2,0,0,1-.22-2.14v-8.56Z" transform="translate(-134.97 -371.87)"/><rect class="cls-2" x="693.35" y="102.72" width="32.1" height="12.84"/><rect class="cls-3" x="693.35" y="85.6" width="32.1" height="12.84"/><rect class="cls-3" x="650.55" y="68.48" width="74.9" height="12.84"/><rect class="cls-4" x="650.55" y="51.36" width="74.9" height="12.84"/><path class="cls-5" d="M860.42,389v12.84H732v-8.56a7.16,7.16,0,0,1,.22-2.14,5.07,5.07,0,0,1,.1-1,6,6,0,0,0,.11-1.17Z" transform="translate(-134.97 -371.87)"/><path class="cls-5" d="M860.42,371.87v12.84H733.73q5.35-12.84,19.69-12.84Z" transform="translate(-134.97 -371.87)"/><rect class="cls-2" x="597.05" y="102.72" width="32.1" height="12.84"/><rect class="cls-3" x="597.05" y="85.6" width="32.1" height="12.84"/><rect class="cls-3" x="597.05" y="68.48" width="32.1" height="12.84"/><rect class="cls-4" x="597.05" y="51.36" width="32.1" height="12.84"/><rect class="cls-4" x="597.05" y="34.24" width="32.1" height="12.84"/><path class="cls-2" d="M715.33,491.71v8.56a7.65,7.65,0,0,1-.21,2.14,5,5,0,0,1-.11,1,6.15,6.15,0,0,0-.11,1.18h-128V491.71Z" transform="translate(-134.97 -371.87)"/><rect class="cls-2" x="548.26" y="102.72" width="32.1" height="12.84"/><rect class="cls-3" x="548.26" y="85.6" width="32.1" height="12.84"/><rect class="cls-3" x="548.26" y="68.48" width="32.1" height="12.84"/><rect class="cls-4" x="548.26" y="51.36" width="32.1" height="12.84"/><rect class="cls-4" x="548.26" y="34.24" width="32.1" height="12.84"/><path class="cls-5" d="M715.33,393.27v8.56H586.93V389h128a6,6,0,0,0,.11,1.17,5.14,5.14,0,0,1,.11,1A7.6,7.6,0,0,1,715.33,393.27Z" transform="translate(-134.97 -371.87)"/><path class="cls-5" d="M713.62,384.71H586.93V371.87h107Q708.06,371.87,713.62,384.71Z" transform="translate(-134.97 -371.87)"/><path class="cls-1" d="M586.93,508.83H713.62q-5.57,12.84-19.69,12.84h-107Z" transform="translate(-134.97 -371.87)"/><rect class="cls-2" x="451.96" y="102.72" width="32.1" height="12.84"/><rect class="cls-3" x="451.96" y="85.6" width="32.1" height="12.84"/><rect class="cls-3" x="451.96" y="68.48" width="32.1" height="12.84"/><rect class="cls-4" x="451.96" y="51.36" width="32.1" height="12.84"/><rect class="cls-4" x="451.96" y="34.24" width="32.1" height="12.84"/><rect class="cls-5" x="312.01" y="17.12" width="128.4" height="12.84"/><rect class="cls-5" x="312.01" width="128.4" height="12.84"/><rect class="cls-1" x="362.3" y="136.96" width="32.1" height="12.84"/><rect class="cls-2" x="362.3" y="119.84" width="32.1" height="12.84"/><rect class="cls-2" x="362.3" y="102.72" width="32.1" height="12.84"/><rect class="cls-3" x="362.3" y="85.6" width="32.1" height="12.84"/><rect class="cls-3" x="362.3" y="68.48" width="32.1" height="12.84"/><rect class="cls-4" x="362.3" y="51.36" width="32.1" height="12.84"/><rect class="cls-4" x="362.3" y="34.24" width="32.1" height="12.84"/><path class="cls-2" d="M436.49,491.71v8.56a7.65,7.65,0,0,1-.21,2.14,5,5,0,0,1-.11,1,6.18,6.18,0,0,0-.1,1.18h-128V491.71Z" transform="translate(-134.97 -371.87)"/><rect class="cls-2" x="269.43" y="102.72" width="32.09" height="12.84"/><path class="cls-3" d="M436.49,461.75v8.56H404.4V457.47h31.67a6.08,6.08,0,0,0,.1,1.17,5.14,5.14,0,0,1,.11,1A7.6,7.6,0,0,1,436.49,461.75Z" transform="translate(-134.97 -371.87)"/><path class="cls-4" d="M436.49,406.11v8.56a7.65,7.65,0,0,1-.21,2.14,5,5,0,0,1-.11,1,6.18,6.18,0,0,0-.1,1.18H404.4V406.11Z" transform="translate(-134.97 -371.87)"/><path class="cls-5" d="M436.49,393.27v8.56H308.09V389h128a6.08,6.08,0,0,0,.1,1.17,5.14,5.14,0,0,1,.11,1A7.6,7.6,0,0,1,436.49,393.27Z" transform="translate(-134.97 -371.87)"/><path class="cls-5" d="M434.78,384.71H308.09V371.87h107Q429.22,371.87,434.78,384.71Z" transform="translate(-134.97 -371.87)"/><path class="cls-4" d="M308.09,423.23H434.78q-5.56,12.84-19.69,12.84h-107Z" transform="translate(-134.97 -371.87)"/><path class="cls-3" d="M434.78,453.19H308.09V440.35h107Q429.22,440.35,434.78,453.19Z" transform="translate(-134.97 -371.87)"/><path class="cls-1" d="M308.09,508.83H434.78q-5.56,12.84-19.69,12.84h-107Z" transform="translate(-134.97 -371.87)"/><rect class="cls-2" x="173.12" y="102.72" width="32.1" height="12.84"/><rect class="cls-3" x="173.12" y="85.6" width="32.1" height="12.84"/><rect class="cls-4" x="173.12" y="34.24" width="32.1" height="12.84"/><polygon class="cls-1" points="155.37 136.96 160.5 149.8 124.12 149.8 118.99 136.96 155.37 136.96"/><polygon class="cls-2" points="148.52 119.84 153.65 132.68 117.27 132.68 112.14 119.84 148.52 119.84"/><polygon class="cls-2" points="141.67 102.72 146.81 115.56 13.7 115.56 18.83 102.72 141.67 102.72"/><polygon class="cls-3" points="134.82 85.6 139.96 98.44 20.55 98.44 25.68 85.6 134.82 85.6"/><polygon class="cls-3" points="127.97 68.48 133.11 81.32 96.73 81.32 91.59 68.48 127.97 68.48"/><polygon class="cls-4" points="121.13 51.36 126.26 64.2 89.88 64.2 84.75 51.36 121.13 51.36"/><polygon class="cls-4" points="114.28 34.24 119.41 47.08 83.03 47.08 80.25 40.01 77.47 47.08 41.09 47.08 46.23 34.24 114.28 34.24"/><polygon class="cls-5" points="107.43 17.12 112.57 29.96 47.94 29.96 53.07 17.12 107.43 17.12"/><polygon class="cls-5" points="100.58 0 105.72 12.84 54.79 12.84 59.92 0 100.58 0"/><polygon class="cls-4" points="75.76 51.36 70.62 64.2 34.24 64.2 39.38 51.36 75.76 51.36"/><polygon class="cls-3" points="68.91 68.48 63.77 81.32 27.39 81.32 32.53 68.48 68.91 68.48"/><polygon class="cls-2" points="48.37 119.84 43.23 132.68 6.85 132.68 11.99 119.84 48.37 119.84"/><polygon class="cls-1" points="41.52 136.96 36.38 149.8 0 149.8 5.14 136.96 41.52 136.96"/></svg>