<svg id="Layer_1" data-name="Layer 1" xmlns="http://www.w3.org/2000/svg" viewBox="0 0 780 180"><defs><style>.cls-1{fill:#212121;}.cls-2{fill:#4e008e;}.cls-3{fill:#6bfff0;}.cls-4{fill:#d1495b;}.cls-5{fill:#ff9d00;}.cls-6{fill:#ffd000;}</style></defs><title>ABTDG-logo</title><rect class="cls-1" width="780" height="180"/><path class="cls-2" d="M860.42,508.83v12.84h-107q-14.34,0-19.69-12.84Z" transform="translate(-111 -357)"/><path class="cls-3" d="M860.42,491.71v12.84h-128a6.15,6.15,0,0,0-.11-1.18,5,5,0,0,1-.1-1,7.2,7.2,0,0,1-.22-2.14v-8.56Z" transform="translate(-111 -357)"/><rect class="cls-3" x="717.32" y="117.59" width="32.1" height="12.84"/><rect class="cls-4" x="717.32" y="100.47" width="32.1" height="12.84"/><rect class="cls-4" x="674.52" y="83.35" width="74.9" height="12.84"/><rect class="cls-5" x="674.52" y="66.23" width="74.9" height="12.84"/><path class="cls-6" d="M860.42,389v12.84H732v-8.56a7.16,7.16,0,0,1,.22-2.14,5.07,5.07,0,0,1,.1-1,6,6,0,0,0,.11-1.17Z" transform="translate(-111 -357)"/><path class="cls-6" d="M860.42,371.87v12.84H733.73q5.35-12.84,19.69-12.84Z" transform="translate(-111 -357)"/><rect class="cls-3" x="621.02" y="117.59" width="32.1" height="12.84"/><rect class="cls-4" x="621.02" y="100.47" width="32.1" height="12.84"/><rect class="cls-4" x="621.02" y="83.35" width="32.1" height="12.84"/><rect class="cls-5" x="621.02" y="66.23" width="32.1" height="12.84"/><rect class="cls-5" x="621.02" y="49.11" width="32.1" height="12.84"/><path class="cls-3" d="M715.33,491.71v8.56a7.65,7.65,0,0,1-.21,2.14,5,5,0,0,1-.11,1,6.15,6.15,0,0,0-.11,1.18h-128V491.71Z" transform="translate(-111 -357)"/><rect class="cls-3" x="572.23" y="117.59" width="32.1" height="12.84"/><rect class="cls-4" x="572.23" y="100.47" width="32.1" height="12.84"/><rect class="cls-4" x="572.23" y="83.35" width="32.1" height="12.84"/><rect class="cls-5" x="572.23" y="66.23" width="32.1" height="12.84"/><rect class="cls-5" x="572.23" y="49.11" width="32.1" height="12.84"/><path class="cls-6" d="M715.33,393.27v8.56H586.93V389h128a6,6,0,0,0,.11,1.17,5.14,5.14,0,0,1,.11,1A7.6,7.6,0,0,1,715.33,393.27Z" transform="translate(-111 -357)"/><path class="cls-6" d="M713.62,384.71H586.93V371.87h107Q708.06,371.87,713.62,384.71Z" transform="translate(-111 -357)"/><path class="cls-2" d="M586.93,508.83H713.62q-5.57,12.84-19.69,12.84h-107Z" transform="translate(-111 -357)"/><rect class="cls-3" x="475.93" y="117.59" width="32.1" height="12.84"/><rect class="cls-4" x="475.93" y="100.47" width="32.1" height="12.84"/><rect class="cls-4" x="475.93" y="83.35" width="32.1" height="12.84"/><rect class="cls-5" x="475.93" y="66.23" width="32.1" height="12.84"/><rect class="cls-5" x="475.93" y="49.11" width="32.1" height="12.84"/><rect class="cls-6" x="335.98" y="31.99" width="128.4" height="12.84"/><rect class="cls-6" x="335.98" y="14.87" width="128.4" height="12.84"/><rect class="cls-2" x="386.27" y="151.83" width="32.1" height="12.84"/><rect class="cls-3" x="386.27" y="134.71" width="32.1" height="12.84"/><rect class="cls-3" x="386.27" y="117.59" width="32.1" height="12.84"/><rect class="cls-4" x="386.27" y="100.47" width="32.1" height="12.84"/><rect class="cls-4" x="386.27" y="83.35" width="32.1" height="12.84"/><rect class="cls-5" x="386.27" y="66.23" width="32.1" height="12.84"/><rect class="cls-5" x="386.27" y="49.11" width="32.1" height="12.84"/><path class="cls-3" d="M436.49,491.71v8.56a7.65,7.65,0,0,1-.21,2.14,5,5,0,0,1-.11,1,6.18,6.18,0,0,0-.1,1.18h-128V491.71Z" transform="translate(-111 -357)"/><rect class="cls-3" x="293.4" y="117.59" width="32.09" height="12.84"/><path class="cls-4" d="M436.49,461.75v8.56H404.4V457.47h31.67a6.08,6.08,0,0,0,.1,1.17,5.14,5.14,0,0,1,.11,1A7.6,7.6,0,0,1,436.49,461.75Z" transform="translate(-111 -357)"/><path class="cls-5" d="M436.49,406.11v8.56a7.65,7.65,0,0,1-.21,2.14,5,5,0,0,1-.11,1,6.18,6.18,0,0,0-.1,1.18H404.4V406.11Z" transform="translate(-111 -357)"/><path class="cls-6" d="M436.49,393.27v8.56H308.09V389h128a6.08,6.08,0,0,0,.1,1.17,5.14,5.14,0,0,1,.11,1A7.6,7.6,0,0,1,436.49,393.27Z" transform="translate(-111 -357)"/><path class="cls-6" d="M434.78,384.71H308.09V371.87h107Q429.22,371.87,434.78,384.71Z" transform="translate(-111 -357)"/><path class="cls-5" d="M308.09,423.23H434.78q-5.56,12.84-19.69,12.84h-107Z" transform="translate(-111 -357)"/><path class="cls-4" d="M434.78,453.19H308.09V440.35h107Q429.22,440.35,434.78,453.19Z" transform="translate(-111 -357)"/><path class="cls-2" d="M308.09,508.83H434.78q-5.56,12.84-19.69,12.84h-107Z" transform="translate(-111 -357)"/><rect class="cls-3" x="197.09" y="117.59" width="32.1" height="12.84"/><rect class="cls-4" x="197.09" y="100.47" width="32.1" height="12.84"/><rect class="cls-5" x="197.09" y="49.11" width="32.1" height="12.84"/><polygon class="cls-2" points="179.34 151.83 184.47 164.67 148.09 164.67 142.96 151.83 179.34 151.83"/><polygon class="cls-3" points="172.49 134.71 177.62 147.55 141.24 147.55 136.11 134.71 172.49 134.71"/><polygon class="cls-3" points="165.64 117.59 170.78 130.43 37.67 130.43 42.8 117.59 165.64 117.59"/><polygon class="cls-4" points="158.79 100.47 163.93 113.31 44.52 113.31 49.65 100.47 158.79 100.47"/><polygon class="cls-4" points="151.94 83.35 157.08 96.19 120.7 96.19 115.56 83.35 151.94 83.35"/><polygon class="cls-5" points="145.1 66.23 150.23 79.07 113.85 79.07 108.72 66.23 145.1 66.23"/><polygon class="cls-5" points="138.25 49.11 143.38 61.95 107 61.95 104.22 54.88 101.44 61.95 65.06 61.95 70.2 49.11 138.25 49.11"/><polygon class="cls-6" points="131.4 31.99 136.54 44.83 71.91 44.83 77.04 31.99 131.4 31.99"/><polygon class="cls-6" points="124.55 14.87 129.69 27.71 78.76 27.71 83.89 14.87 124.55 14.87"/><polygon class="cls-5" points="99.73 66.23 94.59 79.07 58.21 79.07 63.35 66.23 99.73 66.23"/><polygon class="cls-4" points="92.88 83.35 87.74 96.19 51.36 96.19 56.5 83.35 92.88 83.35"/><polygon class="cls-3" points="72.34 134.71 67.2 147.55 30.82 147.55 35.96 134.71 72.34 134.71"/><polygon class="cls-2" points="65.49 151.83 60.35 164.67 23.97 164.67 29.11 151.83 65.49 151.83"/></svg>